<svg data-v-70b83f88="" version="1.0" xmlns="http://www.w3.org/2000/svg" xmlns:xlink="http://www.w3.org/1999/xlink" width="100" height="100" viewBox="0 0 112.5 93.57376861572266" preserveAspectRatio="xMidYMid meet" color-interpolation-filters="sRGB" style="margin: auto;"> <rect data-v-70b83f88="" x="0" y="0" width="100%" height="100%" fill="#ffffff" fill-opacity="1" class="background" style="display: none;"></rect> <rect data-v-70b83f88="" x="0" y="0" width="100%" height="100%" fill="url(#watermark)" fill-opacity="1" class="watermarklayer" style="display: none;"></rect> <g data-v-70b83f88="" class="imagesvg isNoFont"><g><rect fill="#000000" fill-opacity="0" stroke-width="2" x="0" y="0" width="112.5" height="93.57376940096151" class="image-rect"></rect> <svg x="0" y="0" width="112.5" height="93.57376940096151" filtersec="colorsb5809833997" class="image-svg-svg primary" style="overflow: visible;"><svg xmlns="http://www.w3.org/2000/svg" viewBox="0 0 120.2261734008789 100.00003814697266"><path d="M58.1 40.19l5.52 9.56 23.11 40H0l3.83 6.64A7.18 7.18 0 0 0 10 100h90.67a2.14 2.14 0 0 0 1.86-3.22L64 30z" fill="#ff31fa"></path><path d="M58.52 0L40.81 30.67 17.7 70.7h58l5.9 10.22H3.72a2.15 2.15 0 0 1-1.86-3.22L44.65 3.58A7.18 7.18 0 0 1 50.86 0z" fill="#8733ff"></path><path d="M40.49 70.69l5.9-10.22 23.12-40L115.44 100l3.83-6.66a7.18 7.18 0 0 0 0-7.16l-43.86-76-4-7a2.15 2.15 0 0 0-3.72 0l-39 67.47z" fill="#221dff"></path></svg></svg> <!----></g></g><defs v-gra="od"></defs></svg>